<svg width="24" height="25" viewBox="0 0 24 25" fill="none" xmlns="http://www.w3.org/2000/svg">
<path d="M15.3939 12.5C15.3939 11.5999 15.0364 10.7366 14.3999 10.1001C13.7634 9.46365 12.9001 9.10607 12 9.10607C11.0999 9.10607 10.2366 9.46365 9.60012 10.1001C8.96363 10.7366 8.60606 11.5999 8.60606 12.5C8.60606 13.4001 8.96363 14.2634 9.60012 14.8999C10.2366 15.5364 11.0999 15.8939 12 15.8939C12.9001 15.8939 13.7634 15.5364 14.3999 14.8999C15.0364 14.2634 15.3939 13.4001 15.3939 12.5ZM15.3939 12.5V13.7727C15.3939 14.3353 15.6174 14.8749 16.0152 15.2727C16.413 15.6705 16.9526 15.8939 17.5151 15.8939C18.0777 15.8939 18.6173 15.6705 19.0151 15.2727C19.4129 14.8749 19.6364 14.3353 19.6364 13.7727V12.5C19.6364 10.9897 19.1885 9.51327 18.3494 8.25748C17.5103 7.00168 16.3177 6.02291 14.9223 5.44493C13.5269 4.86696 11.9915 4.71573 10.5102 5.01038C9.02891 5.30503 7.66824 6.03232 6.60027 7.10029C5.53231 8.16825 4.80502 9.52892 4.51037 11.0102C4.21572 12.4915 4.36694 14.027 4.94492 15.4223C5.5229 16.8177 6.50167 18.0103 7.75746 18.8494C9.01326 19.6885 10.4897 20.1364 12 20.1364C13.3408 20.1377 14.658 19.7852 15.8182 19.1131" stroke="#4D4F65" stroke-linecap="round" stroke-linejoin="round"/>
</svg>
