<svg width="24" height="24" viewBox="0 0 24 24" fill="none" xmlns="http://www.w3.org/2000/svg">
<path d="M18.4917 14.4416C16.775 16.1499 14.3167 16.6749 12.1584 15.9999L8.23337 19.9166C7.95004 20.2083 7.39171 20.3833 6.99171 20.3249L5.17504 20.0749C4.57504 19.9916 4.01671 19.4249 3.92504 18.8249L3.67504 17.0083C3.61671 16.6083 3.80837 16.0499 4.08337 15.7666L8.00004 11.8499C7.33337 9.68327 7.85004 7.22494 9.56671 5.5166C12.025 3.05827 16.0167 3.05827 18.4834 5.5166C20.95 7.97494 20.95 11.9833 18.4917 14.4416Z" stroke="#292D32" stroke-width="1.5" stroke-miterlimit="10" stroke-linecap="round" stroke-linejoin="round"/>
<path d="M7.7417 16.575L9.65837 18.4916" stroke="#292D32" stroke-width="1.5" stroke-miterlimit="10" stroke-linecap="round" stroke-linejoin="round"/>
<path d="M14.0833 11.1666C14.7737 11.1666 15.3333 10.607 15.3333 9.91663C15.3333 9.22627 14.7737 8.66663 14.0833 8.66663C13.393 8.66663 12.8333 9.22627 12.8333 9.91663C12.8333 10.607 13.393 11.1666 14.0833 11.1666Z" stroke="#292D32" stroke-width="1.5" stroke-linecap="round" stroke-linejoin="round"/>
</svg>
